<?xml version="1.0" standalone="no"?>
<!DOCTYPE svg PUBLIC "-//W3C//DTD SVG 20010904//EN"
 "http://www.w3.org/TR/2001/REC-SVG-20010904/DTD/svg10.dtd">
<svg version="1.0" xmlns="http://www.w3.org/2000/svg"
 width="1280.000000pt" height="649.000000pt" viewBox="0 0 1280.000000 649.000000"
 preserveAspectRatio="xMidYMid meet">
<metadata>
Created by potrace 1.15, written by Peter Selinger 2001-2017
</metadata>
<g transform="translate(0.000000,649.000000) scale(0.100000,-0.100000)"
fill="#000000" stroke="none">
<path d="M6695 6480 c-233 -37 -435 -126 -614 -272 -254 -206 -513 -335 -741
-368 -107 -16 -314 -11 -500 10 -311 36 -463 50 -558 50 l-93 0 8 38 c36 168
-49 339 -205 414 -59 28 -77 32 -152 32 -75 0 -93 -4 -152 -32 -133 -64 -211
-187 -211 -332 0 -98 28 -172 93 -243 57 -62 137 -106 214 -116 31 -4 61 -12
65 -17 5 -5 21 -38 36 -74 140 -335 345 -590 620 -772 161 -106 411 -223 625
-293 104 -35 133 -62 159 -154 49 -167 29 -411 -54 -650 -63 -184 -62 -183
-159 -219 -278 -106 -470 -355 -516 -668 -6 -43 -13 -94 -16 -113 l-5 -33 -40
68 c-113 193 -291 344 -486 414 l-61 22 17 42 c40 93 55 177 54 311 0 105 -5
145 -23 205 -21 71 -23 93 -24 410 -1 349 -7 408 -46 461 -16 20 -21 22 -44
11 -27 -12 -103 -119 -111 -157 -3 -11 -21 -112 -40 -224 -19 -112 -36 -206
-39 -208 -7 -7 -126 132 -189 219 -72 101 -106 159 -210 355 -106 200 -175
273 -260 273 -48 0 -81 -31 -97 -91 -21 -75 -7 -120 87 -288 119 -212 157
-289 171 -351 13 -58 16 -150 4 -150 -4 0 -122 115 -262 256 -140 141 -273
269 -294 285 -50 37 -92 38 -108 4 -16 -36 12 -160 69 -305 65 -164 88 -205
156 -282 101 -113 218 -301 199 -320 -18 -17 -243 -97 -290 -103 -64 -7 -150
-38 -186 -66 -75 -59 16 -132 248 -199 52 -15 117 -21 265 -26 l196 -7 43 -36
44 -35 -34 -12 c-54 -19 -179 -84 -243 -127 -134 -91 -265 -254 -320 -400 -35
-95 -47 -148 -54 -256 l-6 -94 -32 79 c-49 120 -101 201 -178 280 -154 156
-322 183 -525 83 -68 -34 -102 -60 -176 -133 -171 -171 -270 -379 -305 -644
-11 -83 -7 -258 8 -327 l6 -29 -49 37 c-68 52 -125 83 -208 114 -65 25 -83 27
-221 27 -146 1 -152 0 -250 -34 -152 -54 -252 -117 -376 -240 -156 -154 -237
-290 -291 -488 -31 -114 -31 -336 0 -447 43 -148 133 -312 238 -430 l35 -40
1287 -7 c708 -4 2068 -12 3022 -17 954 -6 2457 -16 3340 -21 883 -5 2333 -15
3224 -20 890 -6 1620 -10 1622 -8 6 6 -135 510 -182 648 -88 262 -184 428
-326 566 -231 225 -543 334 -1005 351 l-163 6 -4 31 c-3 17 -10 81 -16 141
-26 255 -87 538 -156 722 -258 691 -792 804 -1679 353 -170 -86 -408 -225
-560 -326 -44 -30 -81 -50 -83 -45 -2 5 6 83 18 173 33 259 50 435 50 545 0
56 3 104 8 106 4 3 79 -6 167 -19 190 -28 230 -29 355 -9 102 17 175 47 197
81 12 19 11 25 -13 53 -33 39 -92 74 -164 97 -59 18 -260 133 -260 148 0 32
161 206 259 280 62 47 162 191 237 341 67 135 69 195 7 195 -39 0 -86 -29
-348 -217 -138 -98 -267 -189 -287 -202 l-38 -23 0 31 c0 82 65 192 241 408
106 130 125 162 135 221 12 77 -35 152 -95 152 -36 -1 -100 -31 -143 -69 -20
-18 -85 -96 -145 -174 -121 -159 -285 -335 -383 -409 l-65 -50 -5 224 -5 224
-35 69 c-29 57 -40 71 -61 73 -21 2 -31 -4 -47 -30 -39 -64 -72 -203 -108
-452 -30 -210 -40 -258 -63 -305 -16 -31 -37 -82 -46 -113 l-18 -57 -91 -29
c-169 -55 -310 -115 -535 -229 -124 -62 -226 -111 -229 -109 -8 8 27 244 53
363 74 328 227 664 414 908 25 33 89 105 141 160 147 155 223 280 272 452 32
111 32 313 0 427 -50 176 -138 320 -279 458 -165 161 -359 266 -593 319 -99
23 -333 33 -425 19z"/>
</g>
</svg>
